<svg width="56" height="44" viewBox="0 0 56 44" fill="none" xmlns="http://www.w3.org/2000/svg">
<path d="M47.4373 3.63051C43.8123 1.93447 39.9363 0.701859 35.8841 0C35.3864 0.899758 34.805 2.10995 34.4041 3.07266C30.0965 2.42484 25.8285 2.42484 21.6 3.07266C21.1992 2.10995 20.6046 0.899758 20.1025 0C16.0459 0.701859 12.1654 1.939 8.54045 3.63949C1.22883 14.6883 -0.753226 25.4627 0.237806 36.0841C5.08725 39.7055 9.78695 41.9054 14.4073 43.345C15.5481 41.7749 16.5656 40.1059 17.4421 38.3469C15.7728 37.7126 14.1739 36.9299 12.6632 36.0211C13.064 35.7242 13.456 35.4138 13.8348 35.0943C23.0491 39.4041 33.0608 39.4041 42.1651 35.0943C42.5483 35.4138 42.9402 35.7242 43.3366 36.0211C41.8215 36.9343 40.2182 37.7171 38.5489 38.3515C39.4254 40.1059 40.4385 41.7795 41.5836 43.3495C46.2085 41.9099 50.9125 39.71 55.762 36.0841C56.9248 23.7712 53.7756 13.0957 47.4373 3.63051ZM18.6974 29.552C15.9314 29.552 13.663 26.9697 13.663 23.8251C13.663 20.6805 15.8829 18.0938 18.6974 18.0938C21.512 18.0938 23.7803 20.676 23.7319 23.8251C23.7362 26.9697 21.512 29.552 18.6974 29.552ZM37.3024 29.552C34.5363 29.552 32.2679 26.9697 32.2679 23.8251C32.2679 20.6805 34.4878 18.0938 37.3024 18.0938C40.1169 18.0938 42.3853 20.676 42.3368 23.8251C42.3368 26.9697 40.1169 29.552 37.3024 29.552Z" fill="white"/>
</svg>
