<svg width="92" height="24" viewBox="0 0 92 24" fill="none" xmlns="http://www.w3.org/2000/svg">
<path fill-rule="evenodd" clip-rule="evenodd" d="M92 12C92 18.6274 86.6093 24 79.9597 24C73.31 24 67.9194 18.6274 67.9194 12C67.9194 5.37258 73.31 0 79.9597 0C86.6093 0 92 5.37258 92 12ZM76.4526 14.4215C75.2177 13.1908 74.6002 12.5754 74.6002 11.8107C74.6002 11.046 75.2177 10.4306 76.4526 9.19985L77.4587 8.1968C78.6936 6.96603 79.3114 6.35065 80.0786 6.35065C80.8457 6.35065 81.4632 6.96603 82.698 8.1968L83.7045 9.19985C84.9394 10.4306 85.5568 11.046 85.5568 11.8107C85.5568 12.5754 84.9394 13.1908 83.7045 14.4215L82.698 15.4246C81.4632 16.6554 80.8457 17.2707 80.0786 17.2707C79.3114 17.2707 78.6936 16.6554 77.4587 15.4246L76.4526 14.4215ZM16.9799 7.07692C17.3209 7.07692 17.5973 6.80142 17.5973 6.46154V1.84615C17.5973 1.50629 17.3209 1.23077 16.9799 1.23077H0.617449C0.276442 1.23077 0 1.50629 0 1.84615V22.1538C0 22.4937 0.276442 22.7692 0.617449 22.7692H6.17449C6.51551 22.7692 6.79194 22.4937 6.79194 22.1538V16.4923C6.79194 16.1524 7.06838 15.8769 7.40939 15.8769H14.8805C15.2216 15.8769 15.498 15.6014 15.498 15.2615V10.6462C15.498 10.3063 15.2216 10.0308 14.8805 10.0308H7.40939C7.06838 10.0308 6.79194 9.75526 6.79194 9.41539V7.69231C6.79194 7.35243 7.06838 7.07692 7.40939 7.07692H16.9799ZM31.333 23.1385H31.4257C38.0324 23.1385 42.0767 19.6308 42.0767 12.9538V1.84615C42.0767 1.50629 41.8004 1.23077 41.4593 1.23077H35.9022C35.5613 1.23077 35.2848 1.50629 35.2848 1.84615V12.3385C35.2848 14.6154 34.2968 16.6154 31.4257 16.6154H31.333C28.4929 16.6154 27.4741 14.6154 27.4741 12.3385V1.84615C27.4741 1.50629 27.1977 1.23077 26.8566 1.23077H21.2996C20.9585 1.23077 20.6821 1.50629 20.6821 1.84615V12.9538C20.6821 19.6308 24.7264 23.1385 31.333 23.1385ZM45.163 1.84615C45.163 1.50629 45.4393 1.23077 45.7804 1.23077H65.7241C66.0652 1.23077 66.3415 1.50629 66.3415 1.84615V6.55385C66.3415 6.89372 66.0652 7.16923 65.7241 7.16923H59.7657C59.4246 7.16923 59.1483 7.44474 59.1483 7.78462V22.1538C59.1483 22.4937 58.872 22.7692 58.5308 22.7692H52.9738C52.6326 22.7692 52.3563 22.4937 52.3563 22.1538V7.78462C52.3563 7.44474 52.08 7.16923 51.7389 7.16923H45.7804C45.4393 7.16923 45.163 6.89372 45.163 6.55385V1.84615Z" fill="white"/>
</svg>
