<svg width="24" height="24" viewBox="0 0 24 24" fill="none" xmlns="http://www.w3.org/2000/svg">
<path fill-rule="evenodd" clip-rule="evenodd" d="M12 24C19.6078 24 24 18.6275 24 12C24 5.37258 19.292 0 12 0C4.70798 0 0 5.37258 0 12C0 18.6275 4.3922 24 12 24ZM8.87407 8.49442L8.4948 8.8737C7.02112 10.3474 6.28428 11.0842 6.28428 11.9998C6.28428 12.9155 7.02112 13.6523 8.4948 15.126L8.87407 15.5053C10.3477 16.979 11.0846 17.7158 12.0002 17.7158C12.9158 17.7158 13.6527 16.979 15.1264 15.5053L15.5056 15.126C16.9793 13.6523 17.7162 12.9155 17.7162 11.9998C17.7162 11.0842 16.9793 10.3474 15.5056 8.8737L15.1264 8.49442C13.6527 7.02076 12.9158 6.28391 12.0002 6.28391C11.0846 6.28391 10.3477 7.02076 8.87407 8.49442Z" fill="url(#paint0_linear_566_2445)"/>
<defs>
<linearGradient id="paint0_linear_566_2445" x1="0" y1="0" x2="25.7964" y2="2.11775" gradientUnits="userSpaceOnUse">
<stop stop-color="#405DB1"/>
<stop offset="0.503553" stop-color="#4F91DC"/>
<stop offset="1" stop-color="#1BACC6"/>
</linearGradient>
</defs>
</svg>
