<svg xmlns="http://www.w3.org/2000/svg" height="24" viewBox="0 -960 960 960" width="24"><path d="M459.461-140v-81.385Q408-228 371.038-257q-36.961-29-54.961-80.231l37.077-16.154q17.308 44.923 47.577 69.154Q431-260 482.846-260q45.616 0 83.346-22.731 37.731-22.731 37.731-73.269 0-42.692-27.769-68.577-27.769-25.884-103.923-50.346-77.539-24.692-109.154-56.423-31.616-31.731-31.616-82.654 0-55.769 42.77-89.077 42.769-33.308 85.23-36V-820h40.001v80.923q41.538 4.154 71.346 23.039 29.808 18.884 49.423 53.73l-35.539 18.154Q570.385-670 545.308-686q-25.077-16-63.846-16-46.308 0-78.154 24.5-31.846 24.5-31.846 63.5 0 36.846 26.154 59.692 26.153 22.846 104.769 47.693 72.846 23.076 107.192 59.269 34.346 36.192 34.346 90.884 0 60.231-42.384 95.693-42.385 35.461-102.077 39.846V-140h-40.001Z"/></svg>