<svg width="56" height="56" viewBox="0 0 56 56" fill="none" xmlns="http://www.w3.org/2000/svg">
<path d="M27.9183 2.97743e-05C20.5064 0.0216479 13.4055 2.98118 8.17212 8.22986C2.93875 13.4785 -3.15263e-05 20.5881 2.53654e-10 28C2.53653e-10 35.4261 2.94999 42.548 8.20101 47.799C13.452 53.05 20.5739 56 28 56C35.4261 56 42.548 53.05 47.799 47.799C53.05 42.548 56 35.4261 56 28C55.9993 20.9304 53.3244 14.1228 48.5123 8.9437C48.4774 11.5568 47.8394 14.1264 46.648 16.4524C45.3693 18.6854 41.3257 22.9157 39.032 25.0834C38.8525 25.251 38.7117 25.4559 38.6196 25.6836C38.5275 25.9113 38.4862 26.1564 38.4986 26.4017C38.5111 26.6471 38.577 26.8867 38.6917 27.1039C38.8063 27.3212 38.9671 27.5107 39.1627 27.6594C41.4867 29.386 45.3647 32.6784 45.668 35.644C46.0787 39.9257 49.4013 45.024 49.5763 45.3484C49.5623 45.6197 49.4779 45.8826 49.3313 46.1114C47.9283 47.7651 46.3388 49.2512 44.5947 50.54C43.988 50.7434 43.3514 50.8428 42.7117 50.834C38.1757 50.7407 39.151 46.48 38.717 44.0557C38.283 41.6314 36.897 36.8574 32.3797 37.5504C32.3797 37.5504 33.509 47.4507 28.9053 50.491C24.3017 53.5314 15.2717 55.7877 13.622 49.539C11.9723 43.2904 19.362 43.9764 19.8847 43.9764C20.405 43.9764 25.095 42.5017 22.841 38.073C20.5847 33.6444 18.151 29.9064 18.151 29.9064C15.8998 30.6174 13.7537 31.6258 11.7693 32.9047C10.8681 33.4375 10.0365 34.0802 9.29367 34.818C6.80867 37.394 4.18367 38.815 2.401 37.9867C2.12882 37.8512 1.8774 37.6776 1.65433 37.471C0.962445 35.5414 0.485887 33.5413 0.233333 31.507C1.23667 30.0114 5.09133 26.7517 8.85733 24.7264C11.9 23.0884 15.2437 22.421 16.1327 21.5647C14.567 16.3497 11.7413 8.2577 18.074 4.46136C23.0557 1.47936 29.61 -0.331303 32.13 6.90203C34.65 14.1354 34.0013 15.7594 35.0863 15.7594C36.1713 15.7594 38.8383 16.2797 39.963 11.676C40.7937 8.30436 41.3023 5.41103 43.1807 4.47303C38.6559 1.55325 33.3851 0.000204799 28 2.97743e-05C27.9728 -9.92478e-06 27.9456 -9.92477e-06 27.9183 2.97743e-05ZM26.7563 4.95836C25.9327 4.91403 24.9363 5.07503 23.716 5.48103C23.716 5.48103 19.2943 6.69436 19.635 11.3844C19.9383 15.5307 22.155 17.808 26.7587 16.0744C31.36 14.3547 32.1487 13.125 31.0147 9.6507C30.1653 7.04436 29.2297 5.0867 26.7563 4.95836ZM27.8763 6.65236C27.9549 6.6493 28.0332 6.66219 28.1066 6.69027C28.18 6.71834 28.2469 6.76101 28.3033 6.8157C28.5186 7.05974 28.7006 7.33121 28.8447 7.62303C28.8898 7.70834 28.9134 7.80343 28.9133 7.89996C28.9132 7.99649 28.8894 8.09153 28.844 8.17674C28.7987 8.26195 28.7331 8.33473 28.6531 8.38871C28.573 8.44269 28.481 8.47622 28.385 8.48636C28.2749 8.49125 28.1656 8.46521 28.0695 8.41119C27.9734 8.35717 27.8944 8.27732 27.8413 8.1807C27.7424 7.99043 27.6268 7.80928 27.496 7.63936C27.3903 7.52831 27.3313 7.38085 27.3313 7.22753C27.3313 7.07421 27.3903 6.92675 27.496 6.8157C27.5984 6.71641 27.7338 6.65827 27.8763 6.65236ZM36.1107 7.00703C36.1998 7.00474 36.288 7.0257 36.3665 7.06784C36.4451 7.10998 36.5113 7.17185 36.5587 7.24736C36.5951 7.3047 36.6197 7.36869 36.6312 7.43563C36.6427 7.50256 36.6408 7.57111 36.6256 7.6373C36.6104 7.7035 36.5822 7.76602 36.5427 7.82124C36.5032 7.87647 36.4531 7.9233 36.3953 7.95903C36.3283 7.99967 36.2528 8.02441 36.1747 8.03135C36.0966 8.03828 36.0179 8.02724 35.9448 7.99905C35.8716 7.97086 35.8058 7.92629 35.7526 7.86874C35.6993 7.8112 35.6599 7.74222 35.6375 7.66709C35.615 7.59196 35.61 7.51269 35.623 7.43535C35.6359 7.35801 35.6664 7.28466 35.7121 7.22093C35.7578 7.1572 35.8174 7.10479 35.8865 7.06771C35.9556 7.03063 36.0323 7.00987 36.1107 7.00703ZM29.421 9.96336C29.5293 9.96155 29.6359 9.98953 29.7293 10.0443C29.8228 10.099 29.8993 10.1784 29.9507 10.2737C30.2863 10.9887 30.3702 11.7963 30.1887 12.565C30.1628 12.6987 30.0916 12.8194 29.987 12.9066C29.8824 12.9937 29.7508 13.0421 29.6147 13.0434H29.5003C29.3475 13.0134 29.2126 12.9243 29.1252 12.7953C29.0378 12.6664 29.0049 12.5081 29.0337 12.355C29.1736 11.8105 29.1149 11.2338 28.868 10.7287C28.8408 10.6412 28.8344 10.5486 28.8492 10.4582C28.864 10.3678 28.8996 10.2821 28.9533 10.2079C29.0069 10.1336 29.0771 10.0729 29.1583 10.0304C29.2395 9.988 29.3294 9.96504 29.421 9.96336ZM10.6727 11.2514C10.6954 11.2509 10.7181 11.2533 10.7403 11.2584C10.7936 11.272 10.8416 11.3009 10.8785 11.3416C10.9154 11.3823 10.9395 11.4329 10.9478 11.4872C10.9561 11.5415 10.9483 11.5971 10.9253 11.6469C10.9023 11.6968 10.8651 11.7388 10.8184 11.7677C10.7717 11.7966 10.7176 11.8112 10.6627 11.8095C10.6077 11.8079 10.5545 11.7901 10.5097 11.7585C10.4648 11.7268 10.4302 11.6826 10.4102 11.6315C10.3902 11.5803 10.3858 11.5244 10.3973 11.4707C10.4112 11.4082 10.4461 11.3523 10.4962 11.3124C10.5463 11.2724 10.6086 11.2509 10.6727 11.2514ZM47.4693 19.229L48.1063 20.4867L49.49 20.7667L48.2323 21.4084L47.9453 22.7897L47.3107 21.532L45.9293 21.245L47.1847 20.6104L47.4693 19.229ZM6.013 20.4774C6.10273 20.4749 6.19153 20.496 6.27055 20.5386C6.34957 20.5812 6.41604 20.6437 6.46333 20.72C6.49936 20.7773 6.52373 20.8411 6.53502 20.9078C6.54631 20.9745 6.54431 21.0427 6.52913 21.1087C6.51395 21.1746 6.48589 21.2368 6.44657 21.2919C6.40725 21.3469 6.35744 21.3936 6.3 21.4294C6.23302 21.4699 6.15765 21.4946 6.07966 21.5016C6.00167 21.5085 5.92312 21.4975 5.85003 21.4695C5.77694 21.4414 5.71123 21.397 5.65795 21.3396C5.60467 21.2822 5.56522 21.2134 5.54262 21.1384C5.52002 21.0635 5.51486 20.9843 5.52756 20.9071C5.54025 20.8298 5.57045 20.7565 5.61584 20.6927C5.66124 20.6289 5.72063 20.5763 5.78947 20.539C5.8583 20.5017 5.93477 20.4806 6.013 20.4774ZM43.3557 26.9874C43.4044 26.9869 43.4529 26.9924 43.5003 27.0037C43.6161 27.0305 43.7214 27.091 43.8029 27.1776C43.8843 27.2642 43.9383 27.3729 43.9581 27.4901C43.9778 27.6074 43.9625 27.7278 43.9139 27.8363C43.8653 27.9448 43.7856 28.0364 43.685 28.0997C43.5844 28.163 43.4673 28.1951 43.3484 28.192C43.2296 28.1888 43.1144 28.1505 43.0173 28.082C42.9202 28.0134 42.8455 27.9176 42.8028 27.8067C42.76 27.6958 42.751 27.5747 42.777 27.4587C42.8064 27.3265 42.8795 27.2081 42.9845 27.1225C43.0895 27.037 43.2202 26.9894 43.3557 26.9874ZM11.466 37.6017C11.5581 37.603 11.6469 37.6363 11.7172 37.6959C11.7874 37.7555 11.8347 37.8377 11.851 37.9284C11.8694 38.0317 11.846 38.1381 11.7861 38.2242C11.7262 38.3104 11.6346 38.3693 11.5313 38.388C11.4767 38.3984 11.4206 38.3971 11.3665 38.3843C11.3124 38.3716 11.2616 38.3476 11.2174 38.3139C11.1732 38.2803 11.1365 38.2377 11.1098 38.189C11.0831 38.1403 11.0669 38.0865 11.0623 38.0311C11.0577 37.9757 11.0648 37.92 11.0831 37.8676C11.1014 37.8151 11.1305 37.7671 11.1686 37.7266C11.2067 37.6861 11.2528 37.6541 11.304 37.6325C11.3553 37.611 11.4104 37.6005 11.466 37.6017ZM34.2603 47.1544C34.2886 47.1549 34.3167 47.1581 34.3443 47.1637C34.4357 47.1816 34.5196 47.2264 34.5853 47.2924C34.651 47.3583 34.6955 47.4424 34.713 47.5338C34.7305 47.6253 34.7203 47.7199 34.6836 47.8054C34.647 47.891 34.5856 47.9637 34.5073 48.0141C34.429 48.0645 34.3374 48.0903 34.2444 48.0882C34.1513 48.0862 34.061 48.0563 33.985 48.0025C33.909 47.9487 33.8509 47.8734 33.818 47.7863C33.7852 47.6992 33.7791 47.6043 33.8007 47.5137C33.8251 47.4105 33.8839 47.3187 33.9674 47.2533C34.051 47.188 34.1543 47.1531 34.2603 47.1544Z" fill="white"/>
</svg>
