<svg width="56" height="59" viewBox="0 0 56 59" fill="none" xmlns="http://www.w3.org/2000/svg">
<path d="M13.3393 53.4636C13.9371 54.2816 14.6292 54.8793 15.4787 55.3512C19.6315 57.7108 26.7416 55.4771 37.5011 49.1849C48.3865 42.8928 53.8607 37.922 53.9551 33.2029C53.9551 32.4793 53.8292 31.913 53.609 31.1894C46.7506 40.5647 23.7528 52.1737 13.3393 53.4636ZM14.2831 3.72425C23.627 5.39167 47.2225 18.4164 53.609 27.0681C53.8607 26.4703 53.8607 25.7782 53.9551 25.1804C53.9551 20.4299 48.6382 15.3332 37.5955 9.07257C26.8045 2.90628 19.8202 0.546725 15.573 2.90628C15.1011 3.1265 14.7551 3.34673 14.2831 3.72425ZM6.82697 4.54223C8.2427 3.72425 10.036 3.34673 11.9236 3.47257C12.7416 2.40291 13.591 1.71077 14.6607 1.11302C19.5056 -1.62406 27.2135 0.766949 38.6022 7.40515C50.2112 14.1692 56 19.6119 56 25.3063C56 26.5962 55.6539 27.9175 55.0562 29.2074C55.7798 30.4973 56 31.9445 56 33.2344C56 38.8029 50.0854 44.2456 38.6022 50.8838C27.1191 57.522 19.5371 59.8816 14.5663 57.0501C13.2764 56.3265 12.0809 55.1625 11.1371 53.6209C9.46966 53.6209 8.05393 53.149 6.76404 52.4254C1.9191 49.6883 0 42.0119 0 28.4838C0 14.9557 1.98202 7.27931 6.82697 4.54223ZM10.7281 5.36021C9.65843 5.48605 8.58876 5.70628 7.77079 6.17819C3.61798 8.53774 1.98202 15.6478 1.98202 28.4523C1.98202 41.131 3.5236 48.367 7.77079 50.7265C8.49438 51.0726 9.31236 51.4501 10.2562 51.5445C5.7573 42.5782 5.7573 13.9175 10.7281 5.36021ZM15.6045 10.8344C7.55056 15.3332 7.55056 42.7984 15.4787 47.2973C23.7843 52.0479 46.1528 35.6883 46.1528 28.5782C46.2787 19.3602 23.4067 6.42987 15.6045 10.8344Z" fill="white"/>
<path fill-rule="evenodd" clip-rule="evenodd" d="M30.8627 30.5941C29.7931 31.1919 28.5975 31.884 27.5593 32.4818C26.5211 33.0795 25.2942 33.7716 24.256 34.3694C20.8268 36.3829 20.9526 36.5087 20.9526 32.4818V28.7065V24.9312C20.9526 21.0301 20.7009 21.0301 24.256 23.0435C25.3256 23.6413 26.5211 24.3334 27.5593 24.9312C28.5975 25.5289 29.8245 26.2211 30.8627 26.8188C34.2919 28.8323 34.2919 28.7065 30.8627 30.5941Z" fill="white"/>
</svg>
