<svg width="56" height="56" viewBox="0 0 56 56" fill="none" xmlns="http://www.w3.org/2000/svg">
<g clip-path="url(#clip0_566_2554)">
<path d="M28 5.047C35.476 5.047 36.3627 5.075 39.3167 5.21033C46.9047 5.55567 50.449 9.156 50.7943 16.688C50.9297 19.6397 50.9553 20.5263 50.9553 28.0023C50.9553 35.4807 50.9273 36.365 50.7943 39.3167C50.4467 46.8417 46.9117 50.449 39.3167 50.7943C36.3627 50.9297 35.4807 50.9577 28 50.9577C20.524 50.9577 19.6373 50.9297 16.6857 50.7943C9.079 50.4467 5.55333 46.83 5.208 39.3143C5.07267 36.3627 5.04467 35.4783 5.04467 28C5.04467 20.524 5.075 19.6397 5.208 16.6857C5.55567 9.156 9.09067 5.55333 16.6857 5.208C19.6397 5.075 20.524 5.047 28 5.047ZM28 0C20.3957 0 19.4437 0.0326667 16.457 0.168C6.28833 0.634667 0.637 6.27667 0.170333 16.4547C0.0326667 19.4437 0 20.3957 0 28C0 35.6043 0.0326667 36.5587 0.168 39.5453C0.634667 49.714 6.27667 55.3653 16.4547 55.832C19.4437 55.9673 20.3957 56 28 56C35.6043 56 36.5587 55.9673 39.5453 55.832C49.7047 55.3653 55.37 49.7233 55.8297 39.5453C55.9673 36.5587 56 35.6043 56 28C56 20.3957 55.9673 19.4437 55.832 16.457C55.3747 6.29767 49.7257 0.637 39.5477 0.170333C36.5587 0.0326667 35.6043 0 28 0V0ZM28 13.622C20.0597 13.622 13.622 20.0597 13.622 28C13.622 35.9403 20.0597 42.3803 28 42.3803C35.9403 42.3803 42.378 35.9427 42.378 28C42.378 20.0597 35.9403 13.622 28 13.622ZM28 37.3333C22.8457 37.3333 18.6667 33.1567 18.6667 28C18.6667 22.8457 22.8457 18.6667 28 18.6667C33.1543 18.6667 37.3333 22.8457 37.3333 28C37.3333 33.1567 33.1543 37.3333 28 37.3333ZM42.9473 9.695C41.09 9.695 39.585 11.2 39.585 13.055C39.585 14.91 41.09 16.415 42.9473 16.415C44.8023 16.415 46.305 14.91 46.305 13.055C46.305 11.2 44.8023 9.695 42.9473 9.695Z" fill="white"/>
</g>
<defs>
<clipPath id="clip0_566_2554">
<rect width="56" height="56" fill="white"/>
</clipPath>
</defs>
</svg>
