<svg width="56" height="40" viewBox="0 0 56 40" fill="none" xmlns="http://www.w3.org/2000/svg">
<path d="M49.6308 1.63978L49.6558 1.64943L49.6817 1.65636C51.9186 2.25466 53.6659 4.00611 54.2733 6.24531C55.1113 9.62865 55.5092 14.5529 55.4998 19.5202C55.4905 24.4829 55.0748 29.4385 54.3075 32.884C53.7067 35.1161 51.9572 36.859 49.7214 37.4656C48.0708 37.8729 44.9362 38.1743 41.0182 38.3687C37.1115 38.5625 32.4686 38.6482 27.8352 38.6352C23.2018 38.6222 18.5829 38.5106 14.7244 38.3103C10.8584 38.1095 7.79523 37.8214 6.23731 37.4644C4.00456 36.864 2.26106 35.1143 1.65422 32.8782C0.865089 29.6577 0.490791 24.6011 0.500172 19.5266C0.509546 14.4556 0.901856 9.43136 1.6196 6.27602C2.21936 4.04625 3.96532 2.30449 6.19732 1.69562C10.6952 0.760903 20.7514 0.437584 30.141 0.509722C34.8296 0.545743 39.3325 0.680096 42.8626 0.883205C44.6282 0.98479 46.1457 1.10331 47.3193 1.23469C48.5165 1.3687 49.296 1.51055 49.6308 1.63978Z" stroke="white"/>
<path d="M23.069 27.0858V12.037L36.1885 19.5614L23.069 27.0858Z" fill="white" stroke="white"/>
</svg>
